<svg width="166" height="50" viewBox="0 0 166 50" fill="none" xmlns="http://www.w3.org/2000/svg">
<path d="M15.472 46V1.264C8.624 1.328 4.464 1.712 0.24 5.744V0.751999H35.632V5.744C31.28 1.712 27.184 1.328 20.4 1.264V46H15.472ZM59.719 46L52.487 28.656C41.607 29.68 39.111 36.272 37.063 40.944C35.847 44.144 34.759 46.512 31.879 46.384C31.495 46.32 31.303 46.32 30.855 45.936C29.127 45.168 28.423 43.248 28.743 40.368C29.063 37.552 29.959 33.968 31.495 29.872C34.887 20.72 40.647 9.072 45.511 0.815998H45.959L65.095 46H59.719ZM52.295 28.208L42.887 6.32C38.983 13.872 34.631 22.576 31.943 30C30.407 34.096 29.511 37.616 29.191 40.368C29.063 42.992 29.511 44.976 31.047 45.488C31.431 45.616 31.623 45.616 31.943 45.808C34.503 46 35.527 43.76 36.551 40.816C38.663 36.016 41.223 29.296 52.295 28.208ZM94.82 0.751999H95.46L92.132 8.56L76.324 46H75.812L56.74 0.751999H61.988L78.436 39.6L80.932 33.52L94.82 0.751999ZM104.984 0.751999V29.616C104.984 40.24 113.624 48.368 123.928 44.528C130.072 42.288 133.72 36.976 133.72 29.616C133.72 20.016 133.528 6.256 129.304 0.751999H134.296V29.616C134.296 36.72 130.776 42.544 124.056 45.04C112.6 49.136 99.9275 42.288 99.9275 29.616V0.751999H104.984ZM143.731 15.856V45.488H154.547C160.115 45.488 163.443 42.992 165.747 36.528L164.275 46H138.803V0.815998H164.659V5.936C160.115 1.584 156.787 1.264 148.979 1.264H143.731V11.632C143.731 20.4 148.211 22.192 156.979 22.192V27.248C153.267 23.024 145.587 23.408 143.731 15.856Z" fill="black"/>
</svg>
